HIERARCHY
ROOT pelvis
{
	OFFSET 0.000000 0.000000 0.000000
	CHANNELS 6 Xposition Yposition Zposition Zrotation Xrotation Yrotation
	JOINT lfemur
	{
		OFFSET 11.446000 0.000000 0.000000
		CHANNELS 3 Zrotation Xrotation Yrotation
		JOINT ltibia
		{
			OFFSET 0.000000 -42.030400 0.000000
			CHANNELS 3 Zrotation Xrotation Yrotation
			JOINT lfoot
			{
				OFFSET 0.000000 -39.930200 0.000000
				CHANNELS 3 Zrotation Xrotation Yrotation
				JOINT ltoes
				{
					OFFSET 0.000000 0.000000 11.775800
					CHANNELS 3 Zrotation Xrotation Yrotation
					End Site
					{
					    OFFSET 0.000000 0.000000 5.000000
					}
				}
			}
		}
	}
	JOINT rfemur
	{
		OFFSET -11.446000 0.000000 0.000000
		CHANNELS 3 Zrotation Xrotation Yrotation
		JOINT rtibia
		{
			OFFSET 0.000000 -42.030400 0.000000
			CHANNELS 3 Zrotation Xrotation Yrotation
			JOINT rfoot
			{
				OFFSET 0.000000 -39.930200 0.000000
				CHANNELS 3 Zrotation Xrotation Yrotation
				JOINT rtoes
				{
					OFFSET 0.000000 0.000000 11.775800
					CHANNELS 3 Zrotation Xrotation Yrotation
					End Site
					{
					    OFFSET 0.000000 0.000000 5.000000
					}
				}
			}
		}
	}
	JOINT thorax
	{
		OFFSET 0.000000 11.255600 -5.000000
		CHANNELS 3 Zrotation Xrotation Yrotation
		JOINT head
		{
			OFFSET 0.000000 43.799300 0.000000
			CHANNELS 3 Zrotation Xrotation Yrotation
			End Site
			{
			    OFFSET 0.000000 5.000000 0.000000
			}
		}
		JOINT lclavicle
		{
			OFFSET 0.000000 39.863000 0.000000
			CHANNELS 3 Zrotation Xrotation Yrotation
			JOINT lhumerus
			{
				OFFSET 17.380600 4.958300 0.000000
				CHANNELS 3 Zrotation Xrotation Yrotation
				JOINT lradius
				{
					OFFSET 0.000000 -27.561300 0.000000
					CHANNELS 3 Zrotation Xrotation Yrotation
					JOINT lhand
					{
						OFFSET 0.000000 -26.933000 0.000000
						CHANNELS 3 Zrotation Xrotation Yrotation
						End Site
						{
						    OFFSET 0.000000 -5.000000 0.000000
						}
					}
				}
			}
		}
		JOINT rclavicle
		{
			OFFSET 0.000000 39.863000 0.000000
			CHANNELS 3 Zrotation Xrotation Yrotation
			JOINT rhumerus
			{
				OFFSET -17.380600 4.958300 0.000000
				CHANNELS 3 Zrotation Xrotation Yrotation
				JOINT rradius
				{
					OFFSET 0.000000 -27.561300 0.000000
					CHANNELS 3 Zrotation Xrotation Yrotation
					JOINT rhand
					{
						OFFSET 0.000000 -26.933000 0.000000
						CHANNELS 3 Zrotation Xrotation Yrotation
						End Site
						{
						    OFFSET 0.000000 -5.000000 0.000000
						}
					}
				}
			}
		}
	}
}
MOTION
Frames:	22
Frame Time:	0.0333333
-9.62546 87.4133 2.55899 11.4839 0.98795 114.094 -0.29928 -0.310967 2.15164 1.33912 19.5503 -17.3626 3.20478 2.82774 0.257933 -0 -5 -0 25.2571 -36.7939 18.7448 -0.239337 24.9179 3.52447 17.8996 14.703 -2.13247 3.45882e-015 -5 3.1927e-015 -20.3803 25.4941 -2.9124 28.8819 -4.35095 -8.18267 6.36111e-015 -2.38542e-015 -3.18055e-015 35.3754 -38.1722 53.666 -2.51206 -0.00389627 -92.9641 6.97713 -10.2973 -8.98424 6.36111e-015 -2.38542e-015 -3.18055e-015 -12.3685 15.1236 -27.2728 11.2403 -17.1887 38.9245 -2.02627 -4.36529 9.76338 
-10.0124 87.2791 2.61311 10.1739 0.380802 113.822 -0.304488 -2.64064 2.11107 1.20432 20.8781 -17.0889 2.95141 2.43792 0.286733 3.18055e-015 -5 -0 21.726 -36.6171 18.9783 -0.279311 31.1812 1.90007 16.3373 12.8099 -1.68113 2.78262e-016 -5 3.1927e-015 -19.1651 24.0207 -2.79745 28.0131 -4.47918 -8.05884 3.18055e-015 -1.59028e-015 1.59028e-015 35.4612 -34.8097 56.01 -1.32672 -0.0963844 -94.4595 6.95899 -10.0549 -8.99294 3.18055e-015 -1.59028e-015 1.59028e-015 -12.9069 13.4527 -22.9298 10.7313 -19.245 36.3681 -2.16607 -4.50079 9.74913 
-10.3289 87.1025 2.59585 9.09109 0.0466945 113.824 -0.50419 -4.49215 2.0003 1.11853 21.9415 -16.9246 3.08432 2.15152 0.298483 5.84423e-015 -5 3.1927e-015 17.0697 -35.3769 18.6404 -0.306473 36.2092 2.22175 15.8592 10.912 -1.36268 7.5549e-016 -5 -9.57811e-015 -17.7005 22.6765 -2.74855 26.4077 -4.4899 -8.25355 3.18055e-015 2.38542e-015 -4.77083e-015 35.0363 -31.3778 58.3642 0.149427 -0.115335 -96.6203 6.803 -9.67286 -9.03717 3.18055e-015 2.38542e-015 -4.77083e-015 -14.1733 11.8828 -19.6512 10.5501 -20.9538 35.0379 -2.04003 -4.56912 9.75861 
-10.595 86.9625 2.51777 8.23504 -0.101369 113.859 -0.762713 -5.77355 1.91034 0.979158 22.5176 -16.7793 3.30003 2.06585 0.281431 6.56007e-016 -5 -1.59635e-015 11.9698 -32.824 18.4937 -0.32182 39.5086 2.63033 15.4636 9.3978 -1.11896 7.95139e-016 -5 -0 -16.0332 21.2612 -2.65157 24.2391 -3.99298 -8.67882 -3.18055e-015 -2.38542e-015 -1.59028e-015 34.0021 -27.7298 60.6441 1.65106 -0.141945 -99.0969 6.67319 -9.12624 -9.08655 -3.18055e-015 -2.38542e-015 -1.59028e-015 -16.156 10.5318 -17.3138 10.8404 -22.2111 34.9286 -2.01245 -4.69866 9.75868 
-10.8667 86.9206 2.38165 7.42965 -0.34784 113.138 -0.961692 -6.75898 1.79461 0.787606 22.7024 -16.0407 3.07281 2.05241 0.24954 -2.66368e-015 -5 -3.1927e-015 7.72486 -29.5722 19.6653 -0.38879 41.4863 1.68317 13.9917 8.91339 -0.950505 9.14446e-016 -5 -3.1927e-015 -14.0435 19.3879 -2.27279 21.7074 -2.66078 -9.02714 -3.18055e-015 4.77083e-015 -3.18055e-015 32.5722 -23.6248 63.0206 2.5865 -0.0025257 -101.163 6.93247 -8.51426 -9.09686 -3.18055e-015 4.77083e-015 -3.18055e-015 -18.8175 9.31493 -14.8212 11.3101 -23.0834 35.1904 -2.32752 -4.96251 9.72599 
-11.1542 86.9628 2.1885 6.61809 -0.916918 110.911 -1.08423 -7.50721 1.56682 0.751001 22.5123 -13.9087 2.58736 1.95171 0.222136 2.52455e-015 -5 1.59635e-015 5.03439 -26.6549 21.8071 -0.528685 43.2672 -0.550334 11.4007 8.81565 -0.774107 2.78262e-016 -5 3.1927e-015 -11.6103 17.1022 -1.53221 18.9114 -0.700556 -8.52466 2.20695e-032 -7.95139e-016 1.59028e-015 30.8215 -18.7097 65.7279 3.24523 -0.133859 -102.279 7.18533 -8.13265 -9.08674 2.20695e-032 -7.95139e-016 1.59028e-015 -22.1226 7.58378 -11.2704 11.5908 -23.6201 35.222 -2.72754 -5.23482 9.68395 
-11.419 87.0657 1.99124 5.90942 -1.82056 107.234 -1.01186 -7.75664 1.37607 0.950383 21.7398 -10.3235 2.47365 1.85824 0.193493 -2.38542e-015 -5 -0 3.64016 -24.5456 23.3028 -0.673214 45.3533 -2.91924 8.93449 8.34227 -0.584592 -5.56525e-016 -5 -6.38541e-015 -8.92344 14.9915 -0.598969 16.0726 1.19508 -6.59923 8.82781e-032 -3.18055e-015 1.59028e-015 29.1038 -13.1823 68.7476 3.53401 -0.077245 -102.516 7.31327 -7.99012 -9.08232 8.82781e-032 -3.18055e-015 1.59028e-015 -25.6174 4.7259 -7.22845 11.732 -23.8974 35.315 -2.84138 -5.36685 9.67025 
-11.6312 87.2248 1.86588 5.3392 -2.86987 103.038 -0.582891 -7.5793 1.50852 1.16203 20.6341 -6.34729 2.59679 1.85337 0.151701 -2.52455e-015 -5 -1.59635e-015 2.83044 -23.0462 23.072 -0.763983 47.2693 -4.2708 7.66624 7.65591 -0.466732 2.90229e-015 -5 -3.1927e-015 -6.63339 13.5507 0.229199 13.6839 2.37609 -3.62705 3.18055e-015 -3.18055e-015 -1.59028e-015 27.3468 -7.52023 71.4067 3.57977 -0.15437 -101.967 7.18199 -7.89674 -9.10217 3.18055e-015 -3.18055e-015 -1.59028e-015 -28.388 0.99966 -3.66366 11.9466 -24.3309 35.5948 -2.74276 -5.40062 9.67873 
-11.8204 87.4144 1.84978 4.7846 -3.83176 99.3456 0.144311 -7.55862 1.98086 1.20175 19.9615 -3.17146 2.22517 1.7594 0.109848 3.57812e-015 -5 -0 2.06847 -21.8581 21.1544 -0.77933 48.475 -4.1938 7.46755 7.18124 -0.428265 -0 -5 -0 -5.36003 12.7103 0.730317 12.1989 2.64289 -0.566659 -3.18055e-015 -6.16232e-015 1.59028e-015 25.9913 -2.51017 73.2498 3.62551 -0.0231144 -100.851 7.22174 -7.71237 -9.1114 -3.18055e-015 -6.16232e-015 1.59028e-015 -29.8199 -2.64531 -1.16886 12.4841 -25.3793 36.0818 -2.77305 -5.50376 9.67337 
-12.0354 87.6104 1.9282 4.12442 -4.6251 96.4822 0.951525 -7.90724 2.53166 1.11693 19.7116 -0.972256 1.40281 1.64429 0.0879228 9.3427e-016 -5 1.59635e-015 1.29151 -20.8389 18.1234 -0.737618 48.7832 -3.31041 7.67685 6.97877 -0.427663 2.78262e-016 -5 3.1927e-015 -5.01452 12.1117 0.883792 11.5925 2.20969 1.99206 -1.59028e-015 -2.38542e-015 7.95139e-016 25.069 1.36662 74.2394 3.83673 -0.0924745 -99.6948 7.20675 -7.66396 -9.11538 -1.59028e-015 -2.38542e-015 7.95139e-016 -30.0869 -5.45935 0.212048 13.3833 -27.0834 36.8452 -2.95713 -5.7338 9.65024 
-12.2724 87.7981 2.06711 3.34353 -5.26432 94.1302 1.65582 -8.26132 2.96598 1.0322 19.1425 0.827028 0.880139 1.81412 0.0801495 2.24628e-015 -5 -1.59635e-015 0.746878 -19.8664 14.7345 -0.686585 48.057 -2.58984 8.11046 6.86367 -0.441946 -1.45115e-015 -5 1.59635e-015 -5.01897 11.5466 0.832417 11.4328 1.44379 4.06919 -1.59028e-015 9.93923e-017 -7.95139e-016 24.5756 3.79701 74.6727 4.19315 -0.0352273 -99.3507 7.11157 -7.80652 -9.11829 -1.59028e-015 9.93923e-017 -7.95139e-016 -29.8216 -7.25187 0.637546 14.4702 -29.0877 37.9432 -3.03252 -5.97379 9.63688 
-12.4911 87.9621 2.2428 2.47706 -5.71209 91.9589 2.20912 -8.49935 3.2959 0.97189 18.2248 2.57127 0.67822 2.19338 0.0646378 2.12698e-015 -5 1.59635e-015 0.62325 -18.819 11.6389 -0.652036 46.1003 -2.42132 8.63932 6.71921 -0.457293 1.86854e-015 -5 3.1927e-015 -5.05068 10.9929 0.741691 11.3654 0.668909 5.82788 -1.59028e-015 1.06847e-015 -1.98785e-016 24.1668 4.69994 74.7216 4.5323 -0.0523264 -100.031 6.91515 -7.93795 -9.13292 -1.59028e-015 1.06847e-015 -1.98785e-016 -29.4785 -8.16124 0.479062 15.5384 -30.9859 39.1235 -2.96693 -6.12415 9.63955 
-12.6757 88.087 2.44098 1.55056 -5.91415 90.0012 2.62291 -8.8516 3.58846 0.866055 17.4916 4.09345 0.448733 2.38527 0.0563654 3.85639e-015 -5 3.1927e-015 0.843892 -17.6314 8.8962 -0.631166 42.8836 -2.6952 8.641 6.49696 -0.446118 4.46995e-015 -5 1.93558e-014 -5.19409 10.4727 0.646928 11.337 0.0558231 7.25519 -1.8966e-033 -5.46658e-016 -1.98785e-016 23.9443 4.05544 74.4488 4.74798 -0.091118 -101.27 6.88956 -7.88874 -9.13892 -1.8966e-033 -5.46658e-016 -1.98785e-016 -29.1007 -8.42967 0.313983 16.399 -32.4453 39.955 -2.9916 -6.21195 9.63487 
-12.8264 88.1722 2.64631 0.630298 -5.87475 88.5048 2.86019 -9.29439 3.79254 0.70963 16.8845 5.23446 0.19138 2.53395 0.0537905 2.08697e-016 -5 2.39453e-015 1.17337 -16.1821 5.97728 -0.618398 38.5154 -3.22723 8.07136 6.11027 -0.403714 -1.00585e-014 -5 -7.98176e-016 -5.51103 10.0094 0.470605 11.3654 -0.363395 8.27984 1.59028e-015 -2.68359e-015 -3.97569e-016 24.1058 1.95882 73.8417 4.89207 -0.0649348 -102.594 7.09508 -7.81894 -9.11952 1.59028e-015 -2.68359e-015 -3.97569e-016 -28.6235 -8.24572 0.431483 16.8648 -33.2082 40.3517 -3.14998 -6.28813 9.61693 
-12.9104 88.2288 2.84975 -0.156481 -5.61643 87.5517 2.86282 -9.51946 3.83177 0.553034 15.9707 6.06732 -0.0178305 3.05082 0.0523636 1.86854e-015 -5 3.1927e-015 1.45314 -14.2705 2.43031 -0.645829 33.03 -3.60543 8.12249 5.71475 -0.384102 -6.38093e-015 -5 -4.78906e-015 -5.86107 9.61939 0.201648 11.3314 -0.560222 8.95756 1.59028e-015 -8.94531e-016 2.38542e-015 24.4221 -1.33665 72.8383 5.0062 -0.0944132 -103.963 7.30189 -7.92533 -9.08913 1.59028e-015 -8.94531e-016 2.38542e-015 -28.1456 -7.6231 0.600022 16.8629 -33.2267 40.5703 -3.22261 -6.33347 9.60836 
-12.8778 88.2581 3.05978 -0.729249 -5.14379 86.9495 2.63532 -9.43565 3.77121 0.373604 14.8674 6.66479 -0.0987272 3.55856 0.0519365 3.06125e-015 -5 3.1927e-015 1.82881 -11.6574 -1.02872 -0.399062 26.2903 -4.21303 7.79413 5.33083 -0.450179 -1.39131e-016 -5 -1.59635e-015 -6.15068 9.26037 -0.0622552 11.1163 -0.450214 9.45541 5.51738e-033 -3.97569e-016 7.95139e-016 24.6156 -5.47463 71.3843 4.93807 -0.112254 -105.43 7.46888 -8.02093 -9.06349 5.51738e-033 -3.97569e-016 7.95139e-016 -27.7823 -6.59729 0.62175 16.4298 -32.5546 40.5707 -3.13436 -6.27951 9.61873 
-12.7252 88.2482 3.29872 -1.13594 -4.50528 86.5306 2.29909 -9.31746 3.73611 0.122811 14.1418 7.00022 -0.258881 3.63084 0.0645158 -3.97569e-016 -5 -0 2.47824 -8.44454 -1.88994 0.541397 18.4453 -7.43642 5.41175 5.66429 -0.556505 1.39131e-016 -5 1.59635e-015 -6.43441 8.83197 -0.286472 10.7652 -0.0092349 9.91678 -3.18055e-015 -2.18663e-015 -0 24.6237 -10.0177 69.4357 4.49486 -0.114545 -106.668 7.67782 -7.89591 -9.04679 -3.18055e-015 -2.18663e-015 -0 -27.4366 -5.46944 0.746679 15.5247 -31.0351 39.8443 -3.09102 -6.05084 9.6292 
-12.5005 88.1956 3.582 -1.47813 -3.79222 86.2929 1.94923 -9.23018 3.71864 -0.151298 13.6425 7.16625 -0.601728 3.76627 0.0773017 1.72941e-015 -5 1.59635e-015 3.04266 -5.34264 -0.158545 1.27723 10.9138 -13.2081 2.17284 7.40575 -0.493235 2.1468e-015 -5 6.38541e-015 -6.69685 8.25839 -0.548023 10.3166 0.639653 10.3946 5.51738e-032 -3.97569e-015 7.95139e-016 24.5145 -14.6017 67.0346 3.71136 -0.0838814 -107.343 7.99432 -7.77441 -9.01788 5.51738e-032 -3.97569e-015 7.95139e-016 -26.9485 -4.4917 1.02616 14.1302 -28.5393 38.2926 -3.17973 -5.59658 9.63272 
-12.2326 88.1137 3.8975 -1.75656 -3.04696 86.1855 1.53192 -8.94781 3.6352 -0.381146 12.8575 7.36417 -0.705486 4.1496 0.0803192 4.18439e-015 -5 2.39453e-015 3.35073 -4.48527 0.543907 1.02414 8.5423 -17.5915 0.60948 7.70143 -0.206936 -7.95139e-016 -5 -0 -6.78135 7.58526 -0.854599 9.63681 1.31532 10.9425 1.59028e-015 2.18663e-015 -7.95139e-016 24.1685 -18.9987 64.3787 2.75402 -0.107509 -107.497 8.28393 -8.03824 -8.96395 1.59028e-015 2.18663e-015 -7.95139e-016 -26.3399 -3.43974 0.531339 12.5378 -25.565 36.8754 -3.12143 -4.9204 9.65589 
-11.9011 88.042 4.2344 -1.81966 -2.32536 85.9932 1.14066 -8.6622 3.54275 -0.595832 12.6078 7.61594 -1.16732 4.04537 0.0736817 2.45498e-015 -5 7.98176e-016 3.43504 -3.94311 0.63283 0.701225 7.74178 -19.9289 -1.4077 6.49595 -0.0741665 -2.38542e-015 -5 -0 -6.53699 7.0337 -1.09699 8.6253 1.88749 11.7115 0 5.76476e-015 -0 23.5897 -23.0366 61.76 1.65506 -0.0956336 -107.24 8.46731 -8.60304 -8.90016 0 5.76476e-015 -0 -25.7083 -1.9405 -1.87876 11.196 -23.0428 36.6422 -2.71618 -4.12263 9.71039 
-11.4735 87.993 4.60352 -1.49804 -1.78444 85.5477 0.953384 -8.15197 3.57348 -0.803086 12.9629 7.92669 -1.8755 3.32089 0.0842662 3.11099e-015 -5 -7.98176e-016 3.12316 -3.33019 0.181422 0.722551 7.68889 -19.6332 -1.09297 5.92171 -0.0915373 3.97569e-016 -5 -0 -5.99414 6.85325 -1.24567 7.44614 2.30002 12.8624 -7.95139e-016 -1.98785e-016 -7.95139e-016 23.0098 -26.3761 59.2497 0.384958 -0.0452309 -106.183 8.5622 -9.09982 -8.85349 -7.95139e-016 -1.98785e-016 -7.95139e-016 -25.0272 -0.0459574 -6.08824 10.4702 -21.4011 37.59 -2.29166 -3.45495 9.75867 
-10.9537 87.8896 5.04631 -0.786604 -1.59028 84.8538 1.09585 -7.12643 3.76549 -0.908716 13.3242 8.44341 -2.15313 2.89966 0.0799627 5.04909e-015 -5 3.1927e-015 2.86873 -3.08491 -0.452318 0.977531 9.27803 -18.062 -0.0282128 5.00698 -0.128727 -2.78262e-016 -5 -3.1927e-015 -5.35313 7.02835 -1.39659 6.42794 2.62183 14.4129 -5.51738e-033 1.98785e-016 1.59028e-015 22.6935 -28.6106 56.7217 -1.03265 -0.0953113 -103.64 8.53086 -9.50229 -8.82265 -5.51738e-033 1.98785e-016 1.59028e-015 -24.2212 1.89603 -10.5586 10.4402 -20.3739 38.8988 -2.28964 -3.19443 9.76365 
